<?xml version="1.0" encoding="utf-8"?><svg viewBox="0 0 72 72" xmlns="http://www.w3.org/2000/svg" xmlns:xlink="http://www.w3.org/1999/xlink"><style>:root>svg{display:none}:root>svg:target{display:block}</style><svg viewBox="0 0 20 10" id="arr" xmlns="http://www.w3.org/2000/svg"><path d="m16.17 6-2.58 2.59L15 10l5-5-5-5-1.41 1.41L16.17 4H0v2h16.17Z"/></svg><svg viewBox="0 0 72 72" fill="none" id="benefits-1" xmlns="http://www.w3.org/2000/svg"><rect rx="36" fill="#E7EBFC"/><g clip-path="url(#ba)"><path d="M42 34h6l-3-4-3 4Zm0 4h6l-3 4-3-4Z" fill="#F46953"/><path d="M25 24h6v24h-6a1 1 0 0 1-1-1V25a1 1 0 0 1 1-1Z" fill="#2E4FD7"/><path d="M33 24h6a1 1 0 0 1 1 1v22a1 1 0 0 1-1 1h-6V24Z" fill="#46BA71"/></g><defs><clipPath id="ba"><path fill="#fff" transform="translate(24 24)" d="M0 0h24v24H0z"/></clipPath></defs></svg><svg viewBox="0 0 72 72" fill="none" id="benefits-2" xmlns="http://www.w3.org/2000/svg"><rect rx="36" fill="#E7EBFC"/><path d="M45 48h-9a1 1 0 0 1-1-1v-2a1 1 0 0 1 1-1h9a1 1 0 0 1 1 1v2a1 1 0 0 1-1 1Z" fill="#F46953"/><path d="M45 24H27a1 1 0 0 0-1 1v2a1 1 0 0 0 1 1h18a1 1 0 0 0 1-1v-2a1 1 0 0 0-1-1Z" fill="#46BA71"/><path d="M45 30H27a1 1 0 0 0-1 1v10a1 1 0 0 0 1 1h18a1 1 0 0 0 1-1V31a1 1 0 0 0-1-1Z" fill="#2E4FD7"/></svg><svg viewBox="0 0 72 72" fill="none" id="benefits-3" xmlns="http://www.w3.org/2000/svg"><rect rx="36" fill="#E7EBFC"/><path d="M47.6 25.2c-.2-.2-.6-.2-.9-.2L41 26.7v20.1l6.3-1.8c.4-.1.7-.5.7-1V26c0-.3-.1-.6-.4-.8Z" fill="#F46953"/><path d="m39 26.7-6-1.5v20.1l6 1.5V26.7Z" fill="#46BA71"/><path d="M31 25.2 24.7 27c-.4.2-.7.6-.7 1v18c0 .3.1.6.4.8.2.1.4.2.6.2h.3l5.7-1.7V25.2Z" fill="#2E4FD7"/></svg><svg viewBox="0 0 72 72" fill="none" id="benefits-4" xmlns="http://www.w3.org/2000/svg"><rect rx="36" fill="#E7EBFC"/><path d="M33 34h-7a1 1 0 0 1-1-1v-7a1 1 0 0 1 1-1h7a1 1 0 0 1 1 1v7a1 1 0 0 1-1 1ZM33 47h-7a1 1 0 0 1-1-1v-7a1 1 0 0 1 1-1h7a1 1 0 0 1 1 1v7a1 1 0 0 1-1 1Z" fill="#2E4FD7"/><path d="M37 26h10v2H37v-2ZM47 39H37v2h10v-2Z" fill="#46BA71"/><path d="M47 44H37v2h10v-2ZM47 31H37v2h10v-2Z" fill="#F46953"/></svg><svg fill="currentColor" class="fbi fbi-brightness-high-fill" viewBox="0 0 16 16" id="dark" xmlns="http://www.w3.org/2000/svg"><path d="M12 8a4 4 0 1 1-8 0 4 4 0 0 1 8 0zM8 0a.5.5 0 0 1 .5.5v2a.5.5 0 0 1-1 0v-2A.5.5 0 0 1 8 0zm0 13a.5.5 0 0 1 .5.5v2a.5.5 0 0 1-1 0v-2A.5.5 0 0 1 8 13zm8-5a.5.5 0 0 1-.5.5h-2a.5.5 0 0 1 0-1h2a.5.5 0 0 1 .5.5zM3 8a.5.5 0 0 1-.5.5h-2a.5.5 0 0 1 0-1h2A.5.5 0 0 1 3 8zm10.657-5.657a.5.5 0 0 1 0 .707l-1.414 1.415a.5.5 0 1 1-.707-.708l1.414-1.414a.5.5 0 0 1 .707 0zm-9.193 9.193a.5.5 0 0 1 0 .707L3.05 13.657a.5.5 0 0 1-.707-.707l1.414-1.414a.5.5 0 0 1 .707 0zm9.193 2.121a.5.5 0 0 1-.707 0l-1.414-1.414a.5.5 0 0 1 .707-.707l1.414 1.414a.5.5 0 0 1 0 .707zM4.464 4.465a.5.5 0 0 1-.707 0L2.343 3.05a.5.5 0 1 1 .707-.707l1.414 1.414a.5.5 0 0 1 0 .708z"/></svg><svg viewBox="0 0 44 44" id="flash" xmlns="http://www.w3.org/2000/svg"><rect opacity=".01"/><path d="M20.368 42.167a1.833 1.833 0 0 1-1.815-2.035l1.412-12.999H9.167a1.833 1.833 0 0 1-1.522-2.86L22.11 2.64a1.833 1.833 0 0 1 2.145-.697 1.833 1.833 0 0 1 1.192 1.834l-1.412 13.09h10.798a1.833 1.833 0 0 1 1.522 2.86L21.89 41.36a1.834 1.834 0 0 1-1.522.807Z"/></svg><svg viewBox="0 0 24 24" id="headline-1" fill="#2e4fd7" xmlns="http://www.w3.org/2000/svg"><rect opacity=".01"/><path d="M9 3H5a2 2 0 0 0-2 2v4a2 2 0 0 0 2 2h4a2 2 0 0 0 2-2V5a2 2 0 0 0-2-2ZM19 3h-4a2 2 0 0 0-2 2v4a2 2 0 0 0 2 2h4a2 2 0 0 0 2-2V5a2 2 0 0 0-2-2ZM9 13H5a2 2 0 0 0-2 2v4a2 2 0 0 0 2 2h4a2 2 0 0 0 2-2v-4a2 2 0 0 0-2-2ZM19 13h-4a2 2 0 0 0-2 2v4a2 2 0 0 0 2 2h4a2 2 0 0 0 2-2v-4a2 2 0 0 0-2-2Z"/></svg><svg viewBox="0 0 24 24" id="headline-2" fill="#2e4fd7" xmlns="http://www.w3.org/2000/svg"><rect opacity=".01" x="24" transform="rotate(90 24 0)"/><path d="M17.56 21a1 1 0 0 1-.46-.11L12 18.22l-5.1 2.67a1 1 0 0 1-1.45-1.06l1-5.63-4.12-4a1 1 0 0 1-.25-1 1 1 0 0 1 .81-.68l5.7-.83 2.51-5.13a1 1 0 0 1 1.8 0l2.54 5.12 5.7.83a1 1 0 0 1 .81.68 1 1 0 0 1-.25 1l-4.12 4 1 5.63a1 1 0 0 1-.4 1 1 1 0 0 1-.62.18Z"/></svg><svg viewBox="0 0 24 24" id="headline-3" fill="#2e4fd7" xmlns="http://www.w3.org/2000/svg"><rect opacity=".01" x="24" y="24" transform="rotate(180 24 24)"/><path d="m3.24 7.29 8.52 4.63c.15.08.33.08.48 0l8.52-4.63a.44.44 0 0 0-.05-.81L12.19 3a.5.5 0 0 0-.38 0L3.29 6.48a.44.44 0 0 0-.05.81Z"/><path d="m20.71 10.66-1.83-.78-6.64 3.61a.51.51 0 0 1-.48 0L5.12 9.88l-1.83.78a.48.48 0 0 0 0 .85l8.52 4.9a.46.46 0 0 0 .48 0l8.52-4.9a.48.48 0 0 0-.1-.85Z"/><path d="m20.71 15.1-1.56-.68-6.91 3.76a.51.51 0 0 1-.48 0l-6.91-3.76-1.56.68a.49.49 0 0 0 0 .87l8.52 5c.15.08.33.08.48 0l8.52-5a.49.49 0 0 0-.1-.87Z"/></svg><svg viewBox="0 0 44 44" id="heart" xmlns="http://www.w3.org/2000/svg"><rect opacity=".01"/><path d="M22 38.5a1.834 1.834 0 0 1-1.302-.532L6.453 23.705a9.643 9.643 0 0 1 0-13.567 9.607 9.607 0 0 1 13.567 0l1.98 1.98 1.98-1.98a9.607 9.607 0 0 1 13.567 0 9.643 9.643 0 0 1 0 13.567L23.302 37.968A1.834 1.834 0 0 1 22 38.5Z"/></svg><svg fill="#fff" class="lbi lbi-brightness-high" viewBox="0 0 16 16" id="light" xmlns="http://www.w3.org/2000/svg"><path d="M8 11a3 3 0 1 1 0-6 3 3 0 0 1 0 6zm0 1a4 4 0 1 0 0-8 4 4 0 0 0 0 8zM8 0a.5.5 0 0 1 .5.5v2a.5.5 0 0 1-1 0v-2A.5.5 0 0 1 8 0zm0 13a.5.5 0 0 1 .5.5v2a.5.5 0 0 1-1 0v-2A.5.5 0 0 1 8 13zm8-5a.5.5 0 0 1-.5.5h-2a.5.5 0 0 1 0-1h2a.5.5 0 0 1 .5.5zM3 8a.5.5 0 0 1-.5.5h-2a.5.5 0 0 1 0-1h2A.5.5 0 0 1 3 8zm10.657-5.657a.5.5 0 0 1 0 .707l-1.414 1.415a.5.5 0 1 1-.707-.708l1.414-1.414a.5.5 0 0 1 .707 0zm-9.193 9.193a.5.5 0 0 1 0 .707L3.05 13.657a.5.5 0 0 1-.707-.707l1.414-1.414a.5.5 0 0 1 .707 0zm9.193 2.121a.5.5 0 0 1-.707 0l-1.414-1.414a.5.5 0 0 1 .707-.707l1.414 1.414a.5.5 0 0 1 0 .707zM4.464 4.465a.5.5 0 0 1-.707 0L2.343 3.05a.5.5 0 1 1 .707-.707l1.414 1.414a.5.5 0 0 1 0 .708z"/></svg><svg viewBox="0 0 51 39" fill="none" id="logo" xmlns="http://www.w3.org/2000/svg"><path fill-rule="evenodd" clip-rule="evenodd" d="M51 5v33.75L28.5 21.875 6 5h45Z" fill="#46BA71"/><path fill-rule="evenodd" clip-rule="evenodd" d="M0 33.75V0l22.5 16.875L45 33.75H0Z" fill="#2E4FD7"/></svg><svg viewBox="0 0 33 33" fill="none" id="next" xmlns="http://www.w3.org/2000/svg"><rect opacity=".01" x=".5" y="32.5" transform="rotate(-90 .5 32.5)" fill="#191919"/><path d="M7.167 17.833H22.98l-4.84 5.814a1.335 1.335 0 0 0 2.053 1.706l6.667-8c.045-.063.085-.13.12-.2 0-.066 0-.106.093-.173.06-.153.092-.316.093-.48a1.335 1.335 0 0 0-.093-.48c0-.067 0-.107-.093-.173a1.576 1.576 0 0 0-.12-.2l-6.667-8a1.333 1.333 0 0 0-1.027-.48 1.333 1.333 0 0 0-1.026 2.186l4.84 5.814H7.167a1.333 1.333 0 1 0 0 2.666Z" fill="#191919"/></svg><svg viewBox="0 0 26 26" id="play" xmlns="http://www.w3.org/2000/svg"><rect opacity=".01" x="26" y="26" transform="rotate(-180 26 26)"/><path d="M8.667 17.56V8.44A1.907 1.907 0 0 1 9.75 6.716a2.275 2.275 0 0 1 2.394.281l5.525 4.561a1.907 1.907 0 0 1 0 2.882L12.144 19a2.275 2.275 0 0 1-2.394.282 1.907 1.907 0 0 1-1.083-1.722Z"/></svg><svg viewBox="0 0 33 33" fill="none" id="prev" xmlns="http://www.w3.org/2000/svg"><rect opacity=".01" x="32.5" y=".5" transform="rotate(90 32.5 .5)" fill="#191919"/><path d="M25.834 15.167H10.02l4.84-5.814a1.335 1.335 0 0 0-2.053-1.706l-6.667 8c-.045.063-.085.13-.12.2 0 .066 0 .106-.093.173-.06.153-.092.316-.093.48 0 .165.032.327.093.48 0 .067 0 .107.093.173.035.07.075.137.12.2l6.667 8c.254.305.63.481 1.027.48a1.333 1.333 0 0 0 1.026-2.186l-4.84-5.814h15.814a1.333 1.333 0 1 0 0-2.666Z" fill="#191919"/></svg><svg viewBox="0 0 44 44" id="shield" fill="#2e4fd7" xmlns="http://www.w3.org/2000/svg"><rect opacity=".01"/><path d="M22 40.058a3.666 3.666 0 0 1-1.833-.458l-.55-.312A27.812 27.812 0 0 1 5.5 15.088v-.256a3.667 3.667 0 0 1 1.833-3.209L20.167 4.4a3.667 3.667 0 0 1 3.666 0l12.834 7.223a3.667 3.667 0 0 1 1.833 3.209v.256a27.812 27.812 0 0 1-14.153 24.2l-.55.312a3.668 3.668 0 0 1-1.797.458Z"/></svg></svg>